<svg xmlns="http://www.w3.org/2000/svg" xmlns:xlink="http://www.w3.org/1999/xlink" width="1134" zoomAndPan="magnify" viewBox="0 0 850.5 340.49999" height="454" preserveAspectRatio="xMidYMid meet" version="1.0"><defs><g/><clipPath id="cccc3e991f"><path d="M 0.375 0 L 849.625 0 L 849.625 340 L 0.375 340 Z M 0.375 0 " clip-rule="nonzero"/></clipPath><clipPath id="31394504f6"><path d="M 0.375 0 L 849.625 0 L 849.625 340 L 0.375 340 Z M 0.375 0 " clip-rule="nonzero"/></clipPath><clipPath id="1915d98c02"><path d="M 0.375 0 L 849.625 0 L 849.625 340 L 0.375 340 Z M 0.375 0 " clip-rule="nonzero"/></clipPath><clipPath id="25fa276c8c"><rect x="0" width="850" y="0" height="340"/></clipPath><clipPath id="0962087dbc"><path d="M 0.914062 0.988281 L 196.605469 0.988281 L 196.605469 196.675781 L 0.914062 196.675781 Z M 0.914062 0.988281 " clip-rule="nonzero"/></clipPath><clipPath id="36bf7672c7"><rect x="0" width="197" y="0" height="197"/></clipPath><clipPath id="f1237f6fa5"><rect x="0" width="554" y="0" height="164"/></clipPath><clipPath id="65273838e9"><rect x="0" width="850" y="0" height="340"/></clipPath></defs><g clip-path="url(#cccc3e991f)"><g><g clip-path="url(#65273838e9)"><g clip-path="url(#31394504f6)"><g><g clip-path="url(#25fa276c8c)"><g clip-path="url(#1915d98c02)"><rect x="-309.582" width="1469.664" fill="#ffffff" y="-123.941996" height="588.383983" fill-opacity="1"/></g></g></g></g><g transform="matrix(1, 0, 0, 1, 27, 71)"><g clip-path="url(#36bf7672c7)"><g clip-path="url(#0962087dbc)"><path fill="#25548b" d="M 98.777344 188.921875 C 50.433594 188.921875 10.859375 150.636719 8.824219 102.761719 L 25.457031 102.761719 C 26.359375 121.277344 34.070312 138.621094 47.457031 151.890625 C 61.511719 165.863281 79.910156 173.496094 99.402344 173.496094 C 99.675781 173.496094 99.949219 173.496094 100.1875 173.496094 C 140.738281 173.066406 173.582031 139.558594 173.386719 98.613281 C 172.835938 89.023438 169.234375 64.636719 148.175781 45.496094 C 130.328125 29.25 110.050781 25.960938 99.402344 25.414062 L 46.753906 25.414062 C 61.472656 14.960938 79.398438 8.816406 98.777344 8.816406 C 148.410156 8.777344 188.808594 49.175781 188.808594 98.847656 C 188.808594 148.523438 148.410156 188.921875 98.777344 188.921875 Z M 57.636719 102.761719 L 75.445312 102.761719 C 86.054688 104.09375 94.863281 110.789062 98.425781 120.339844 C 101.75 129.226562 99.207031 137.328125 97.328125 141.476562 C 76.230469 140.300781 59.28125 123.664062 57.636719 102.761719 Z M 19.15625 56.847656 L 98.230469 56.886719 C 109.777344 56.691406 120.738281 61.191406 129.035156 69.414062 C 137.214844 77.515625 141.71875 88.203125 141.679688 99.476562 C 141.640625 111.101562 136.902344 121.628906 129.269531 129.261719 C 129.777344 126.367188 130.089844 123.429688 130.089844 120.417969 C 130.089844 93.328125 109.109375 71.328125 83.3125 71.328125 L 13.050781 71.328125 C 14.65625 66.28125 16.730469 61.425781 19.15625 56.847656 Z M 10.9375 79.082031 L 83.273438 79.082031 C 104.765625 79.082031 122.222656 97.597656 122.222656 120.378906 C 122.222656 126.09375 121.128906 131.574219 119.011719 136.742188 C 114.941406 138.894531 110.480469 140.339844 105.78125 141.046875 C 107.703125 135.332031 109.109375 126.835938 105.667969 117.597656 C 101.046875 105.230469 89.734375 96.578125 76.074219 94.972656 C 75.917969 94.972656 75.757812 94.933594 75.601562 94.933594 L 8.824219 94.933594 C 9.058594 89.53125 9.761719 84.246094 10.9375 79.082031 Z M 37.203125 33.203125 L 99.167969 33.203125 C 108.601562 33.671875 126.84375 36.609375 142.890625 51.25 C 161.839844 68.472656 165.046875 90.433594 165.558594 98.847656 C 165.710938 135.332031 136.355469 165.316406 100.066406 165.707031 C 82.53125 165.902344 65.660156 159.011719 52.9375 146.367188 C 41.039062 134.546875 34.148438 119.203125 33.289062 102.761719 L 49.847656 102.761719 C 51.53125 128.636719 73.019531 149.1875 99.285156 149.382812 C 99.402344 149.382812 99.519531 149.421875 99.636719 149.421875 C 99.792969 149.421875 99.910156 149.382812 100.027344 149.382812 C 127.234375 149.148438 149.390625 126.875 149.46875 99.515625 C 149.507812 86.125 144.222656 73.484375 134.515625 63.890625 C 124.730469 54.183594 111.734375 48.898438 98.148438 49.097656 L 23.777344 49.058594 C 27.652344 43.265625 32.152344 37.941406 37.203125 33.203125 Z M 98.777344 0.988281 C 73.683594 0.988281 50.785156 10.460938 33.484375 26.039062 C 33.171875 26.277344 32.859375 26.511719 32.621094 26.824219 C 25.183594 33.671875 18.804688 41.660156 13.753906 50.503906 C 13.519531 50.820312 13.324219 51.132812 13.167969 51.523438 C 9.214844 58.609375 6.121094 66.242188 4.046875 74.304688 C 4.046875 74.34375 4.007812 74.382812 4.007812 74.421875 C 1.972656 82.253906 0.914062 90.433594 0.914062 98.847656 C 0.914062 152.789062 44.796875 196.710938 98.777344 196.710938 C 152.753906 196.710938 196.636719 152.789062 196.636719 98.847656 C 196.636719 44.90625 152.71875 0.988281 98.777344 0.988281 " fill-opacity="1" fill-rule="nonzero"/></g></g></g><g transform="matrix(1, 0, 0, 1, 273, 88)"><g clip-path="url(#f1237f6fa5)"><g fill="#000000" fill-opacity="1"><g transform="translate(0.681106, 129.763708)"><g><path d="M 97.78125 -31.6875 L 95.828125 0 L 4.8125 0 L 4.8125 -5.4375 C 6.4375 -5.570312 8.335938 -5.789062 10.515625 -6.09375 C 12.691406 -6.394531 14.128906 -6.6875 14.828125 -6.96875 C 16.503906 -7.613281 17.664062 -8.515625 18.3125 -9.671875 C 18.96875 -10.835938 19.296875 -12.328125 19.296875 -14.140625 L 19.296875 -83.84375 C 19.296875 -85.519531 19.039062 -86.898438 18.53125 -87.984375 C 18.019531 -89.078125 16.785156 -90.066406 14.828125 -90.953125 C 13.390625 -91.597656 11.660156 -92.117188 9.640625 -92.515625 C 7.617188 -92.910156 6.007812 -93.203125 4.8125 -93.390625 L 4.8125 -98.828125 L 59.0625 -98.828125 L 59.0625 -93.390625 C 57.570312 -93.253906 55.816406 -93.054688 53.796875 -92.796875 C 51.773438 -92.535156 50.023438 -92.175781 48.546875 -91.71875 C 46.734375 -91.113281 45.523438 -90.171875 44.921875 -88.890625 C 44.316406 -87.617188 44.015625 -86.171875 44.015625 -84.546875 L 44.015625 -19.5625 C 44.015625 -16.5 44.222656 -14.085938 44.640625 -12.328125 C 45.054688 -10.566406 45.867188 -9.265625 47.078125 -8.421875 C 48.285156 -7.546875 49.96875 -6.976562 52.125 -6.71875 C 54.28125 -6.46875 57.265625 -6.34375 61.078125 -6.34375 C 64.785156 -6.34375 68.390625 -6.5625 71.890625 -7 C 75.398438 -7.4375 77.921875 -8.398438 79.453125 -9.890625 C 81.828125 -12.253906 84.253906 -15.582031 86.734375 -19.875 C 89.222656 -24.175781 91.207031 -28.113281 92.6875 -31.6875 Z M 97.78125 -31.6875 "/></g></g><g transform="translate(98.457306, 129.763708)"><g><path d="M 78.90625 -16.640625 C 77.28125 -13.992188 75.316406 -11.5 73.015625 -9.15625 C 70.722656 -6.8125 68.113281 -4.804688 65.1875 -3.140625 C 62.070312 -1.367188 58.925781 -0.03125 55.75 0.875 C 52.570312 1.78125 48.914062 2.234375 44.78125 2.234375 C 37.90625 2.234375 31.972656 1.257812 26.984375 -0.6875 C 21.992188 -2.644531 17.875 -5.269531 14.625 -8.5625 C 11.375 -11.863281 8.945312 -15.753906 7.34375 -20.234375 C 5.738281 -24.710938 4.9375 -29.578125 4.9375 -34.828125 C 4.9375 -39.554688 5.804688 -44.09375 7.546875 -48.4375 C 9.296875 -52.78125 11.769531 -56.644531 14.96875 -60.03125 C 18.125 -63.320312 22.101562 -65.988281 26.90625 -68.03125 C 31.71875 -70.082031 37.09375 -71.109375 43.03125 -71.109375 C 49.53125 -71.109375 54.867188 -70.316406 59.046875 -68.734375 C 63.234375 -67.160156 66.695312 -64.976562 69.4375 -62.1875 C 72.082031 -59.539062 74.003906 -56.414062 75.203125 -52.8125 C 76.410156 -49.21875 77.015625 -45.445312 77.015625 -41.5 L 77.015625 -36.984375 L 29.953125 -36.984375 C 29.953125 -27.460938 31.785156 -20.21875 35.453125 -15.25 C 39.117188 -10.28125 44.941406 -7.796875 52.921875 -7.796875 C 57.285156 -7.796875 61.207031 -8.988281 64.6875 -11.375 C 68.175781 -13.769531 71.148438 -16.800781 73.609375 -20.46875 Z M 52.296875 -43.109375 C 52.296875 -45.890625 52.15625 -48.742188 51.875 -51.671875 C 51.601562 -54.597656 51.117188 -56.988281 50.421875 -58.84375 C 49.628906 -61.03125 48.546875 -62.679688 47.171875 -63.796875 C 45.804688 -64.910156 44.082031 -65.46875 42 -65.46875 C 38.414062 -65.46875 35.554688 -63.65625 33.421875 -60.03125 C 31.285156 -56.40625 30.128906 -50.671875 29.953125 -42.828125 Z M 52.296875 -43.109375 "/></g></g><g transform="translate(180.007112, 129.763708)"><g><path d="M 83.4375 0 L 39.90625 0 L 39.90625 -5.078125 C 42.175781 -5.222656 44.078125 -5.421875 45.609375 -5.671875 C 47.140625 -5.929688 47.90625 -6.457031 47.90625 -7.25 C 47.90625 -7.613281 47.707031 -8.191406 47.3125 -8.984375 C 46.925781 -9.773438 46.429688 -10.65625 45.828125 -11.625 C 44.941406 -13.0625 43.421875 -15.335938 41.265625 -18.453125 C 39.109375 -21.566406 37.078125 -24.445312 35.171875 -27.09375 C 32.472656 -23.976562 30.21875 -21.304688 28.40625 -19.078125 C 26.601562 -16.847656 24.703125 -14.457031 22.703125 -11.90625 C 22.003906 -11.070312 21.515625 -10.304688 21.234375 -9.609375 C 20.960938 -8.910156 20.828125 -8.492188 20.828125 -8.359375 C 20.828125 -7.285156 21.578125 -6.46875 23.078125 -5.90625 C 24.585938 -5.351562 26.390625 -5.078125 28.484375 -5.078125 L 28.484375 0 L 0.203125 0 L 0.203125 -5.078125 C 3.960938 -5.867188 6.96875 -7.125 9.21875 -8.84375 C 11.476562 -10.5625 13 -11.882812 13.78125 -12.8125 C 17.175781 -16.4375 20.046875 -19.441406 22.390625 -21.828125 C 24.734375 -24.222656 27.878906 -27.578125 31.828125 -31.890625 C 29.179688 -35.554688 25.976562 -40.035156 22.21875 -45.328125 C 18.457031 -50.628906 15.320312 -54.972656 12.8125 -58.359375 C 11.5625 -60.023438 10.03125 -61.3125 8.21875 -62.21875 C 6.40625 -63.125 4.0625 -63.71875 1.1875 -64 L 1.1875 -69.078125 L 43.734375 -69.078125 L 43.734375 -64 C 42.203125 -64 40.691406 -63.90625 39.203125 -63.71875 C 37.722656 -63.53125 36.984375 -63.207031 36.984375 -62.75 C 36.984375 -62.375 37.097656 -61.90625 37.328125 -61.34375 C 37.554688 -60.789062 37.859375 -60.210938 38.234375 -59.609375 C 39.117188 -58.128906 40.507812 -55.945312 42.40625 -53.0625 C 44.3125 -50.1875 46.359375 -47.171875 48.546875 -44.015625 C 50.628906 -46.566406 52.378906 -48.65625 53.796875 -50.28125 C 55.210938 -51.90625 57.035156 -54.203125 59.265625 -57.171875 C 60.097656 -58.285156 60.617188 -59.117188 60.828125 -59.671875 C 61.035156 -60.234375 61.140625 -60.585938 61.140625 -60.734375 C 61.140625 -61.515625 60.640625 -62.21875 59.640625 -62.84375 C 58.648438 -63.476562 56.691406 -63.863281 53.765625 -64 L 53.765625 -69.078125 L 81.484375 -69.078125 L 81.484375 -64 C 79.203125 -63.625 76.992188 -62.859375 74.859375 -61.703125 C 72.722656 -60.546875 70.492188 -58.734375 68.171875 -56.265625 C 64.554688 -52.503906 61.921875 -49.753906 60.265625 -48.015625 C 58.617188 -46.273438 55.894531 -43.382812 52.09375 -39.34375 C 54.226562 -36.332031 57.3125 -31.945312 61.34375 -26.1875 C 65.382812 -20.425781 68.867188 -15.570312 71.796875 -11.625 C 73.054688 -9.863281 74.460938 -8.425781 76.015625 -7.3125 C 77.566406 -6.195312 80.039062 -5.453125 83.4375 -5.078125 Z M 83.4375 0 "/></g></g><g transform="translate(263.855078, 129.763708)"><g><path d="M 46.234375 2.640625 C 40.203125 2.640625 34.570312 1.894531 29.34375 0.40625 C 24.125 -1.070312 19.707031 -2.832031 16.09375 -4.875 L 11.28125 0 L 5.359375 0 L 4.453125 -35.71875 L 10.453125 -35.71875 C 11.796875 -32.332031 13.507812 -28.757812 15.59375 -25 C 17.6875 -21.238281 20.101562 -17.875 22.84375 -14.90625 C 25.675781 -11.789062 28.84375 -9.257812 32.34375 -7.3125 C 35.851562 -5.363281 39.953125 -4.390625 44.640625 -4.390625 C 50.953125 -4.390625 55.789062 -5.929688 59.15625 -9.015625 C 62.519531 -12.109375 64.203125 -16 64.203125 -20.6875 C 64.203125 -24.539062 62.773438 -27.773438 59.921875 -30.390625 C 57.066406 -33.015625 52.644531 -35.28125 46.65625 -37.1875 C 42.757812 -38.4375 39.171875 -39.59375 35.890625 -40.65625 C 32.617188 -41.726562 29.546875 -42.820312 26.671875 -43.9375 C 20.035156 -46.582031 15.101562 -50.363281 11.875 -55.28125 C 8.644531 -60.207031 7.03125 -65.710938 7.03125 -71.796875 C 7.03125 -75.648438 7.863281 -79.351562 9.53125 -82.90625 C 11.207031 -86.457031 13.648438 -89.648438 16.859375 -92.484375 C 19.921875 -95.128906 23.84375 -97.285156 28.625 -98.953125 C 33.40625 -100.628906 38.601562 -101.46875 44.21875 -101.46875 C 49.695312 -101.46875 54.828125 -100.710938 59.609375 -99.203125 C 64.390625 -97.691406 68.148438 -96.171875 70.890625 -94.640625 L 75.140625 -98.828125 L 81.203125 -98.828125 L 81.765625 -65.109375 L 75.765625 -65.109375 C 74.378906 -68.734375 72.742188 -72.4375 70.859375 -76.21875 C 68.984375 -80 67 -83.144531 64.90625 -85.65625 C 62.632812 -88.351562 60.007812 -90.5 57.03125 -92.09375 C 54.0625 -93.695312 50.582031 -94.5 46.59375 -94.5 C 41.570312 -94.5 37.472656 -93.082031 34.296875 -90.25 C 31.117188 -87.414062 29.53125 -83.910156 29.53125 -79.734375 C 29.53125 -75.785156 30.910156 -72.554688 33.671875 -70.046875 C 36.429688 -67.546875 40.738281 -65.34375 46.59375 -63.4375 C 50.03125 -62.28125 53.535156 -61.117188 57.109375 -59.953125 C 60.679688 -58.796875 63.859375 -57.6875 66.640625 -56.625 C 73.378906 -54.019531 78.5 -50.429688 82 -45.859375 C 85.507812 -41.285156 87.265625 -35.609375 87.265625 -28.828125 C 87.265625 -24.554688 86.265625 -20.425781 84.265625 -16.4375 C 82.265625 -12.445312 79.570312 -9.128906 76.1875 -6.484375 C 72.46875 -3.554688 68.171875 -1.304688 63.296875 0.265625 C 58.421875 1.847656 52.734375 2.640625 46.234375 2.640625 Z M 46.234375 2.640625 "/></g></g><g transform="translate(356.408189, 129.763708)"><g><path d="M 48.046875 0 L 4.046875 0 L 4.046875 -5.078125 C 5.242188 -5.171875 6.421875 -5.285156 7.578125 -5.421875 C 8.742188 -5.566406 9.742188 -5.800781 10.578125 -6.125 C 12.066406 -6.6875 13.113281 -7.488281 13.71875 -8.53125 C 14.320312 -9.570312 14.625 -10.953125 14.625 -12.671875 L 14.625 -53.203125 C 14.625 -54.828125 14.25 -56.253906 13.5 -57.484375 C 12.757812 -58.710938 11.832031 -59.703125 10.71875 -60.453125 C 9.882812 -61.003906 8.617188 -61.535156 6.921875 -62.046875 C 5.234375 -62.554688 3.691406 -62.882812 2.296875 -63.03125 L 2.296875 -68.109375 L 36.421875 -69.921875 L 37.46875 -68.875 L 37.46875 -13.578125 C 37.46875 -11.953125 37.816406 -10.570312 38.515625 -9.4375 C 39.210938 -8.300781 40.207031 -7.453125 41.5 -6.890625 C 42.4375 -6.472656 43.457031 -6.101562 44.5625 -5.78125 C 45.675781 -5.457031 46.835938 -5.222656 48.046875 -5.078125 Z M 37.890625 -94.984375 C 37.890625 -91.460938 36.53125 -88.457031 33.8125 -85.96875 C 31.09375 -83.488281 27.878906 -82.25 24.171875 -82.25 C 20.410156 -82.25 17.171875 -83.488281 14.453125 -85.96875 C 11.734375 -88.457031 10.375 -91.460938 10.375 -94.984375 C 10.375 -98.515625 11.734375 -101.53125 14.453125 -104.03125 C 17.171875 -106.539062 20.410156 -107.796875 24.171875 -107.796875 C 27.929688 -107.796875 31.15625 -106.539062 33.84375 -104.03125 C 36.539062 -101.53125 37.890625 -98.515625 37.890625 -94.984375 Z M 37.890625 -94.984375 "/></g></g><g transform="translate(406.828395, 129.763708)"><g><path d="M 142.421875 0 L 100.90625 0 L 100.90625 -5.078125 C 101.925781 -5.222656 102.992188 -5.34375 104.109375 -5.4375 C 105.222656 -5.53125 106.15625 -5.757812 106.90625 -6.125 C 107.925781 -6.59375 108.570312 -7.367188 108.84375 -8.453125 C 109.125 -9.546875 109.265625 -10.953125 109.265625 -12.671875 L 109.265625 -45.203125 C 109.265625 -49.984375 108.414062 -53.566406 106.71875 -55.953125 C 105.03125 -58.347656 102.609375 -59.546875 99.453125 -59.546875 C 97.453125 -59.546875 95.671875 -59.226562 94.109375 -58.59375 C 92.554688 -57.96875 91.132812 -57.191406 89.84375 -56.265625 C 88.488281 -55.296875 87.441406 -54.320312 86.703125 -53.34375 C 85.960938 -52.363281 85.335938 -51.53125 84.828125 -50.84375 L 84.828125 -13.4375 C 84.828125 -11.769531 85.019531 -10.410156 85.40625 -9.359375 C 85.800781 -8.316406 86.535156 -7.492188 87.609375 -6.890625 C 88.347656 -6.472656 89.191406 -6.101562 90.140625 -5.78125 C 91.097656 -5.457031 92.113281 -5.222656 93.1875 -5.078125 L 93.1875 0 L 53.421875 0 L 53.421875 -5.078125 C 54.296875 -5.171875 55.359375 -5.285156 56.609375 -5.421875 C 57.867188 -5.566406 58.800781 -5.800781 59.40625 -6.125 C 60.375 -6.632812 61.007812 -7.375 61.3125 -8.34375 C 61.613281 -9.320312 61.765625 -10.765625 61.765625 -12.671875 L 61.765625 -45.203125 C 61.765625 -49.984375 60.914062 -53.566406 59.21875 -55.953125 C 57.53125 -58.347656 55.109375 -59.546875 51.953125 -59.546875 C 49.953125 -59.546875 48.175781 -59.226562 46.625 -58.59375 C 45.070312 -57.96875 43.644531 -57.191406 42.34375 -56.265625 C 41 -55.296875 39.953125 -54.320312 39.203125 -53.34375 C 38.460938 -52.363281 37.835938 -51.53125 37.328125 -50.84375 L 37.328125 -13.4375 C 37.328125 -11.8125 37.535156 -10.460938 37.953125 -9.390625 C 38.367188 -8.328125 39.113281 -7.492188 40.1875 -6.890625 C 40.925781 -6.472656 41.769531 -6.101562 42.71875 -5.78125 C 43.675781 -5.457031 44.6875 -5.222656 45.75 -5.078125 L 45.75 0 L 4.046875 0 L 4.046875 -5.078125 C 5.242188 -5.171875 6.421875 -5.285156 7.578125 -5.421875 C 8.742188 -5.566406 9.742188 -5.800781 10.578125 -6.125 C 12.066406 -6.6875 13.085938 -7.488281 13.640625 -8.53125 C 14.203125 -9.570312 14.484375 -10.953125 14.484375 -12.671875 L 14.484375 -53.203125 C 14.484375 -54.691406 14.085938 -56.144531 13.296875 -57.5625 C 12.515625 -58.976562 11.566406 -60.078125 10.453125 -60.859375 C 9.609375 -61.421875 8.546875 -61.882812 7.265625 -62.25 C 5.992188 -62.625 4.59375 -62.882812 3.0625 -63.03125 L 3.0625 -68.109375 L 36.28125 -69.921875 L 37.328125 -68.875 L 37.328125 -59.0625 L 37.609375 -59.0625 C 38.910156 -60.21875 40.453125 -61.597656 42.234375 -63.203125 C 44.023438 -64.804688 45.707031 -66.09375 47.28125 -67.0625 C 49 -68.175781 51.203125 -69.101562 53.890625 -69.84375 C 56.585938 -70.59375 59.539062 -70.96875 62.75 -70.96875 C 68.039062 -70.96875 72.460938 -69.816406 76.015625 -67.515625 C 79.566406 -65.210938 82.082031 -62.160156 83.5625 -58.359375 L 84.203125 -58.359375 C 85.546875 -59.609375 87.191406 -61.082031 89.140625 -62.78125 C 91.085938 -64.476562 92.875 -65.835938 94.5 -66.859375 C 96.3125 -68.015625 98.617188 -68.988281 101.421875 -69.78125 C 104.234375 -70.570312 107.242188 -70.96875 110.453125 -70.96875 C 117.460938 -70.96875 122.859375 -68.898438 126.640625 -64.765625 C 130.421875 -60.628906 132.3125 -54.753906 132.3125 -47.140625 L 132.3125 -13.296875 C 132.3125 -11.578125 132.566406 -10.195312 133.078125 -9.15625 C 133.585938 -8.113281 134.519531 -7.3125 135.875 -6.75 C 136.613281 -6.425781 137.523438 -6.101562 138.609375 -5.78125 C 139.703125 -5.457031 140.972656 -5.222656 142.421875 -5.078125 Z M 142.421875 0 "/></g></g></g></g></g></g></g></g></svg>