<svg xmlns="http://www.w3.org/2000/svg" xmlns:xlink="http://www.w3.org/1999/xlink" width="1500" zoomAndPan="magnify" viewBox="0 0 1125 1124.99995" height="1500" preserveAspectRatio="xMidYMid meet" version="1.0"><defs><clipPath id="83efbf8b9c"><path d="M 0 0 L 1125 0 L 1125 1125 L 0 1125 Z M 0 0 " clip-rule="nonzero"/></clipPath><clipPath id="c3efa5d8e6"><rect x="0" width="1125" y="0" height="1125"/></clipPath><clipPath id="e6108e8022"><path d="M 0.300781 0.808594 L 1039.488281 0.808594 L 1039.488281 1039.996094 L 0.300781 1039.996094 Z M 0.300781 0.808594 " clip-rule="nonzero"/></clipPath><clipPath id="b3458e90fe"><rect x="0" width="1040" y="0" height="1041"/></clipPath></defs><g transform="matrix(1, 0, 0, 1, 42, 42)"><g clip-path="url(#b3458e90fe)"><g clip-path="url(#e6108e8022)"><path fill="#25548b" d="M 519.980469 998.808594 C 263.257812 998.808594 53.09375 795.507812 42.289062 541.277344 L 130.632812 541.277344 C 135.414062 639.601562 176.363281 731.691406 247.457031 802.15625 C 322.085938 876.367188 419.789062 916.902344 523.308594 916.902344 C 524.761719 916.902344 526.214844 916.902344 527.464844 916.902344 C 742.816406 914.617188 917.226562 736.675781 916.1875 519.238281 C 913.273438 468.308594 894.152344 338.8125 782.3125 237.15625 C 687.527344 150.890625 579.847656 133.433594 523.308594 130.515625 L 243.722656 130.515625 C 321.875 75.015625 417.082031 42.382812 519.980469 42.382812 C 783.5625 42.171875 998.085938 256.703125 998.085938 520.488281 C 998.085938 784.277344 783.5625 998.808594 519.980469 998.808594 Z M 301.503906 541.277344 L 396.085938 541.277344 C 452.421875 548.339844 499.191406 583.890625 518.113281 634.609375 C 535.78125 681.800781 522.269531 724.828125 512.289062 746.859375 C 400.242188 740.625 310.238281 652.277344 301.503906 541.277344 Z M 97.171875 297.441406 L 517.074219 297.652344 C 578.394531 296.613281 636.601562 320.519531 680.667969 364.171875 C 724.109375 407.199219 748.015625 463.949219 747.8125 523.820312 C 747.601562 585.554688 722.445312 641.46875 681.910156 682.003906 C 684.613281 666.625 686.277344 651.035156 686.277344 635.03125 C 686.277344 491.175781 574.855469 374.351562 437.871094 374.351562 L 64.738281 374.351562 C 73.265625 347.542969 84.277344 321.761719 97.171875 297.441406 Z M 53.515625 415.515625 L 437.660156 415.515625 C 551.785156 415.515625 644.492188 513.839844 644.492188 634.820312 C 644.492188 665.171875 638.679688 694.273438 627.449219 721.710938 C 605.832031 733.144531 582.128906 740.835938 557.1875 744.578125 C 567.375 714.226562 574.855469 669.117188 556.570312 620.058594 C 532.039062 554.375 471.957031 508.429688 399.414062 499.914062 C 398.585938 499.914062 397.75 499.703125 396.921875 499.703125 L 42.289062 499.703125 C 43.539062 471.015625 47.28125 442.953125 53.515625 415.515625 Z M 192.996094 171.890625 L 522.058594 171.890625 C 572.160156 174.382812 669.023438 189.972656 754.25 267.714844 C 854.867188 359.175781 871.910156 475.796875 874.613281 520.488281 C 875.441406 714.226562 719.539062 873.457031 526.839844 875.539062 C 433.714844 876.578125 344.117188 839.988281 276.558594 772.84375 C 213.367188 710.066406 176.78125 628.582031 172.207031 541.277344 L 260.140625 541.277344 C 269.078125 678.683594 383.199219 787.816406 522.683594 788.855469 C 523.308594 788.855469 523.925781 789.058594 524.550781 789.058594 C 525.386719 789.058594 526.003906 788.855469 526.628906 788.855469 C 671.101562 787.605469 788.761719 669.328125 789.175781 524.023438 C 789.386719 452.929688 761.324219 385.785156 709.769531 334.859375 C 657.800781 283.304688 588.789062 255.242188 516.652344 256.28125 L 121.691406 256.078125 C 142.277344 225.308594 166.183594 197.035156 192.996094 171.890625 Z M 519.980469 0.808594 C 386.730469 0.808594 265.125 51.113281 173.246094 133.847656 C 171.582031 135.097656 169.925781 136.339844 168.675781 138.003906 C 129.179688 174.382812 95.296875 216.785156 68.484375 263.765625 C 67.230469 265.429688 66.191406 267.097656 65.363281 269.175781 C 44.367188 306.792969 27.949219 347.328125 16.929688 390.15625 C 16.929688 390.359375 16.71875 390.570312 16.71875 390.78125 C 5.910156 432.355469 0.300781 475.796875 0.300781 520.488281 C 0.300781 806.9375 233.328125 1040.171875 519.980469 1040.171875 C 806.632812 1040.171875 1039.660156 806.9375 1039.660156 520.488281 C 1039.660156 234.039062 806.429688 0.808594 519.980469 0.808594 " fill-opacity="1" fill-rule="nonzero"/></g></g></g></svg>